<svg width="23" height="27" viewBox="0 0 23 27" fill="none" xmlns="http://www.w3.org/2000/svg">
<path d="M4.11744 9.46056V8.24734C4.11744 4.22708 7.3765 0.968018 11.3968 0.968018C15.417 0.968018 18.6761 4.22708 18.6761 8.24734V9.46056H21.1025C21.7726 9.46056 22.3157 10.0037 22.3157 10.6738V25.2324C22.3157 25.9025 21.7726 26.4456 21.1025 26.4456H1.691C1.02097 26.4456 0.477783 25.9025 0.477783 25.2324V10.6738C0.477783 10.0037 1.02097 9.46056 1.691 9.46056H4.11744ZM19.8893 11.887H2.90422V24.0192H19.8893V11.887ZM10.1835 18.8417C9.45828 18.4221 8.97032 17.638 8.97032 16.7399C8.97032 15.3998 10.0566 14.3134 11.3968 14.3134C12.7369 14.3134 13.8232 15.3998 13.8232 16.7399C13.8232 17.638 13.3352 18.4221 12.61 18.8417V21.5928H10.1835V18.8417ZM6.54388 9.46056H16.2496V8.24734C16.2496 5.56716 14.0769 3.39446 11.3968 3.39446C8.71659 3.39446 6.54388 5.56716 6.54388 8.24734V9.46056Z" fill="#1C1C1C"/>
</svg>
