<svg width="21" height="26" viewBox="0 0 21 26" fill="none" xmlns="http://www.w3.org/2000/svg">
<path d="M20.1024 25.5203H17.676V23.0938C17.676 21.0837 16.0465 19.4542 14.0363 19.4542H6.75702C4.74689 19.4542 3.11736 21.0837 3.11736 23.0938V25.5203H0.690918V23.0938C0.690918 19.7437 3.40681 17.0277 6.75702 17.0277H14.0363C17.3865 17.0277 20.1024 19.7437 20.1024 23.0938V25.5203ZM10.3967 14.6013C6.37642 14.6013 3.11736 11.3422 3.11736 7.32198C3.11736 3.30172 6.37642 0.0426636 10.3967 0.0426636C14.4169 0.0426636 17.676 3.30172 17.676 7.32198C17.676 11.3422 14.4169 14.6013 10.3967 14.6013ZM10.3967 12.1749C13.0768 12.1749 15.2496 10.0022 15.2496 7.32198C15.2496 4.64181 13.0768 2.4691 10.3967 2.4691C7.7165 2.4691 5.5438 4.64181 5.5438 7.32198C5.5438 10.0022 7.7165 12.1749 10.3967 12.1749Z" fill="#1C1C1C"/>
</svg>
